<svg width="40" height="40" viewBox="0 0 40 40" fill="none" xmlns="http://www.w3.org/2000/svg">
<circle cx="20" cy="20" r="20" fill="white"/>
<path fill-rule="evenodd" clip-rule="evenodd" d="M14.235 23.6109C14.9717 23.6109 15.6783 23.3183 16.1992 22.7974C16.7201 22.2764 17.0128 21.5699 17.0128 20.8332C17.0128 20.0965 16.7201 19.3899 16.1992 18.869C15.6783 18.3481 14.9717 18.0554 14.235 18.0554C13.4983 18.0554 12.7918 18.3481 12.2708 18.869C11.7499 19.3899 11.4572 20.0965 11.4572 20.8332C11.4572 21.5699 11.7499 22.2764 12.2708 22.7974C12.7918 23.3183 13.4983 23.6109 14.235 23.6109ZM14.235 24.9998C15.3401 24.9998 16.3999 24.5608 17.1813 23.7794C17.9627 22.998 18.4017 21.9382 18.4017 20.8332C18.4017 19.7281 17.9627 18.6683 17.1813 17.8869C16.3999 17.1055 15.3401 16.6665 14.235 16.6665C13.13 16.6665 12.0701 17.1055 11.2887 17.8869C10.5073 18.6683 10.0684 19.7281 10.0684 20.8332C10.0684 21.9382 10.5073 22.998 11.2887 23.7794C12.0701 24.5608 13.13 24.9998 14.235 24.9998ZM25.3461 23.6109C26.0829 23.6109 26.7894 23.3183 27.3103 22.7974C27.8313 22.2764 28.1239 21.5699 28.1239 20.8332C28.1239 20.0965 27.8313 19.3899 27.3103 18.869C26.7894 18.3481 26.0829 18.0554 25.3461 18.0554C24.6094 18.0554 23.9029 18.3481 23.382 18.869C22.861 19.3899 22.5684 20.0965 22.5684 20.8332C22.5684 21.5699 22.861 22.2764 23.382 22.7974C23.9029 23.3183 24.6094 23.6109 25.3461 23.6109ZM25.3461 24.9998C26.4512 24.9998 27.511 24.5608 28.2924 23.7794C29.0738 22.998 29.5128 21.9382 29.5128 20.8332C29.5128 19.7281 29.0738 18.6683 28.2924 17.8869C27.511 17.1055 26.4512 16.6665 25.3461 16.6665C24.2411 16.6665 23.1813 17.1055 22.3999 17.8869C21.6185 18.6683 21.1795 19.7281 21.1795 20.8332C21.1795 21.9382 21.6185 22.998 22.3999 23.7794C23.1813 24.5608 24.2411 24.9998 25.3461 24.9998Z" fill="black"/>
<path fill-rule="evenodd" clip-rule="evenodd" d="M19.7908 19.4441C19.4224 19.4441 19.0692 19.5904 18.8087 19.8509C18.5482 20.1113 18.4019 20.4646 18.4019 20.833H17.013C17.013 20.0962 17.3057 19.3897 17.8266 18.8688C18.3475 18.3478 19.0541 18.0552 19.7908 18.0552C20.5275 18.0552 21.234 18.3478 21.755 18.8688C22.2759 19.3897 22.5686 20.0962 22.5686 20.833H21.1797C21.1797 20.4646 21.0334 20.1113 20.7729 19.8509C20.5124 19.5904 20.1592 19.4441 19.7908 19.4441ZM8.67969 20.833C8.67969 20.6488 8.75285 20.4721 8.88309 20.3419C9.01332 20.2117 9.18995 20.1385 9.37413 20.1385H10.763V21.5274H9.37413C9.18995 21.5274 9.01332 21.4542 8.88309 21.324C8.75285 21.1938 8.67969 21.0171 8.67969 20.833ZM30.2075 21.5274H28.8186V20.1385H30.2075C30.3916 20.1385 30.5683 20.2117 30.6985 20.3419C30.8287 20.4721 30.9019 20.6488 30.9019 20.833C30.9019 21.0171 30.8287 21.1938 30.6985 21.324C30.5683 21.4542 30.3916 21.5274 30.2075 21.5274Z" fill="black"/>
</svg>
